<svg xmlns="http://www.w3.org/2000/svg" viewBox="0 0 160 50" width="160" height="50" aria-labelledby="title">
  <title>Colita Feliz - Logo</title>
  <g fill="#111">
    <text x="60" y="30" font-family="system-ui, -apple-system, Segoe UI, Roboto, Helvetica, Arial, sans-serif" font-size="22" font-weight="700">Colita <tspan fill="#ff7b00">Feliz</tspan></text>
  </g>
  <g transform="translate(10,8)">
    <circle cx="10" cy="10" r="6" fill="#111"/><!-- toe -->
    <circle cx="22" cy="6" r="6" fill="#111"/>
    <circle cx="34" cy="10" r="6" fill="#111"/>
    <path d="M7 22c0-6 8-8 13-8s13 2 13 8-8 11-13 11S7 28 7 22z" fill="#111"/>
    <path d="M42,26
             c4,-8 16,-8 20,0
             c2,4 -1,9 -6,9
             c-3,0 -5,-2 -4,-4
             c-1,2 -3,4 -6,4
             c-6,0 -9,-5 -6,-9z"
          fill="#ff7b00" opacity="0.85"/>
  </g>
</svg>
